<?xml version="1.0" encoding="utf-8"?>
<!-- Generator: Adobe Illustrator 24.0.1, SVG Export Plug-In . SVG Version: 6.00 Build 0)  -->
<svg version="1.1" id="圖層_1" xmlns="http://www.w3.org/2000/svg" xmlns:xlink="http://www.w3.org/1999/xlink" x="0px" y="0px"
	 viewBox="0 0 256 256" style="enable-background:new 0 0 256 256;" xml:space="preserve">
<g>
	<defs>
		<polygon id="SVGID_1_" points="50.019,72.717 102.019,52.227 102.019,183.738 50.019,204.227 		"/>
	</defs>
	<clipPath id="SVGID_2_">
		<use xlink:href="#SVGID_1_"  style="overflow:visible;"/>
	</clipPath>
	<g style="clip-path:url(#SVGID_2_);">
		<defs>
			<rect id="SVGID_3_" x="32.019" y="32.227" width="192" height="192"/>
		</defs>
		<clipPath id="SVGID_4_">
			<use xlink:href="#SVGID_3_"  style="overflow:visible;"/>
		</clipPath>
		<rect x="45.019" y="47.227" style="clip-path:url(#SVGID_4_);fill:#71ACCE;" width="62" height="162"/>
	</g>
</g>
<g>
	<defs>
		<polygon id="SVGID_5_" points="154.019,72.717 206.019,52.227 206.019,183.738 154.019,204.227 		"/>
	</defs>
	<clipPath id="SVGID_6_">
		<use xlink:href="#SVGID_5_"  style="overflow:visible;"/>
	</clipPath>
	<g style="clip-path:url(#SVGID_6_);">
		<defs>
			<rect id="SVGID_7_" x="32.019" y="32.227" width="192" height="192"/>
		</defs>
		<clipPath id="SVGID_8_">
			<use xlink:href="#SVGID_7_"  style="overflow:visible;"/>
		</clipPath>
		<rect x="149.019" y="47.227" style="clip-path:url(#SVGID_8_);fill:#7FB9DA;" width="62" height="162"/>
	</g>
</g>
<g>
	<defs>
		<polygon id="SVGID_9_" points="154.019,72.717 102.019,52.227 102.019,183.738 154.019,204.227 		"/>
	</defs>
	<clipPath id="SVGID_10_">
		<use xlink:href="#SVGID_9_"  style="overflow:visible;"/>
	</clipPath>
	<g style="clip-path:url(#SVGID_10_);">
		<defs>
			<rect id="SVGID_11_" x="32.019" y="32.227" width="192" height="192"/>
		</defs>
		<clipPath id="SVGID_12_">
			<use xlink:href="#SVGID_11_"  style="overflow:visible;"/>
		</clipPath>
		<rect x="97.019" y="47.227" style="clip-path:url(#SVGID_12_);fill:#4F7D9C;" width="62" height="162"/>
	</g>
</g>
<g>
	<defs>
		
			<ellipse id="SVGID_13_" transform="matrix(0.9139 -0.4059 0.4059 0.9139 -41.8828 62.8345)" cx="127.212" cy="130.17" rx="63.528" ry="62.972"/>
	</defs>
	<clipPath id="SVGID_14_">
		<use xlink:href="#SVGID_13_"  style="overflow:visible;"/>
	</clipPath>
	<g style="clip-path:url(#SVGID_14_);">
		<defs>
			<rect id="SVGID_15_" x="32.019" y="32.227" width="192" height="192"/>
		</defs>
		<clipPath id="SVGID_16_">
			<use xlink:href="#SVGID_15_"  style="overflow:visible;"/>
		</clipPath>
		<g style="clip-path:url(#SVGID_16_);enable-background:new    ;">
			<g>
				<defs>
					<rect id="SVGID_17_" x="-42.981" y="44.227" width="341" height="172"/>
				</defs>
				<clipPath id="SVGID_18_">
					<use xlink:href="#SVGID_17_"  style="overflow:visible;"/>
				</clipPath>
				<g style="clip-path:url(#SVGID_18_);">
					<defs>
						
							<ellipse id="SVGID_19_" transform="matrix(0.9139 -0.4059 0.4059 0.9139 -41.8828 62.8345)" cx="127.212" cy="130.17" rx="63.528" ry="62.972"/>
					</defs>
					<clipPath id="SVGID_20_">
						<use xlink:href="#SVGID_19_"  style="overflow:visible;"/>
					</clipPath>
					<g style="clip-path:url(#SVGID_20_);">
						<defs>
							<rect id="SVGID_21_" x="55.019" y="58.227" width="144" height="144"/>
						</defs>
						<clipPath id="SVGID_22_">
							<use xlink:href="#SVGID_21_"  style="overflow:visible;"/>
						</clipPath>
						
							<ellipse transform="matrix(0.9139 -0.4059 0.4059 0.9139 -41.8828 62.8345)" style="clip-path:url(#SVGID_22_);fill:#D8D8D8;" cx="127.212" cy="130.17" rx="63.528" ry="62.972"/>
					</g>
				</g>
				<g style="clip-path:url(#SVGID_18_);">
					<defs>
						<rect id="SVGID_23_" x="55.019" y="58.227" width="144" height="144"/>
					</defs>
					<clipPath id="SVGID_24_">
						<use xlink:href="#SVGID_23_"  style="overflow:visible;"/>
					</clipPath>
					
						<ellipse transform="matrix(0.9139 -0.4058 0.4058 0.9139 -41.8804 62.8285)" style="clip-path:url(#SVGID_24_);fill:none;stroke:#979797;stroke-width:14;stroke-miterlimit:10;" cx="127.212" cy="130.17" rx="63.528" ry="62.972"/>
				</g>
			</g>
		</g>
	</g>
</g>
<g>
	<defs>
		<path id="SVGID_25_" d="M162.867,177.549c2.732-2.036,6.593-1.493,8.658,1.217l17.848,23.424c2.037,2.673,1.521,6.491-1.152,8.527
			c-0.017,0.013-0.034,0.026-0.052,0.039c-2.732,2.036-6.593,1.493-8.658-1.217l-17.848-23.424
			c-2.037-2.673-1.521-6.491,1.152-8.527C162.832,177.575,162.85,177.562,162.867,177.549z"/>
	</defs>
	<clipPath id="SVGID_26_">
		<use xlink:href="#SVGID_25_"  style="overflow:visible;"/>
	</clipPath>
	<g style="clip-path:url(#SVGID_26_);">
		<defs>
			<rect id="SVGID_27_" x="32.019" y="32.227" width="192" height="192"/>
		</defs>
		<clipPath id="SVGID_28_">
			<use xlink:href="#SVGID_27_"  style="overflow:visible;"/>
		</clipPath>
		
			<rect x="164.29" y="168.279" transform="matrix(0.7986 -0.6018 0.6018 0.7986 -81.5011 144.7247)" style="clip-path:url(#SVGID_28_);fill:#979797;" width="22.457" height="51.748"/>
	</g>
</g>
<g>
	<defs>
		<path id="SVGID_29_" d="M75.497,108.449l23.471,31.147l-21.727,16.372c-7.73-14.918-8.225-32.217-2.143-47.218L75.497,108.449z
			 M93.444,84.908c22.335-16.831,53.109-14.578,72.773,4.012l-59.263,44.658L80.533,98.517
			C83.954,93.425,88.269,88.808,93.444,84.908z M177.178,103.2c8.277,15.295,8.834,33.225,2.396,48.648l-24.251-32.181
			L177.178,103.2z M143.344,128.695l27.91,37.038c-2.816,3.45-6.089,6.62-9.805,9.421c-22.613,17.04-53.876,14.519-73.502-4.714
			L143.344,128.695z"/>
	</defs>
	<clipPath id="SVGID_30_">
		<use xlink:href="#SVGID_29_"  style="overflow:visible;"/>
	</clipPath>
	<g style="clip-path:url(#SVGID_30_);">
		<defs>
			<rect id="SVGID_31_" x="32.019" y="32.227" width="192" height="192"/>
		</defs>
		<clipPath id="SVGID_32_">
			<use xlink:href="#SVGID_31_"  style="overflow:visible;"/>
		</clipPath>
		
			<rect x="66.582" y="68.531" transform="matrix(0.7986 -0.6018 0.6018 0.7986 -52.5915 102.8829)" style="clip-path:url(#SVGID_32_);fill:#5FA369;" width="121.729" height="123"/>
	</g>
</g>
<g>
	<defs>
		<path id="SVGID_33_" d="M80.33,98.822l26.301,34.817l59.542-44.761c2.293,2.163,4.436,4.548,6.397,7.15
			c1.716,2.278,3.234,4.644,4.557,7.076l-21.773,16.366l24.305,32.175c-2.096,5.078-4.949,9.887-8.533,14.244l-28.077-37.169
			l-55.271,41.552c-1.939-1.917-3.764-3.997-5.454-6.24c-1.988-2.638-3.71-5.394-5.17-8.236l21.956-16.506l-23.678-31.348
			C76.772,104.781,78.406,101.726,80.33,98.822z"/>
	</defs>
	<clipPath id="SVGID_34_">
		<use xlink:href="#SVGID_33_"  style="overflow:visible;"/>
	</clipPath>
	<g style="clip-path:url(#SVGID_34_);">
		<defs>
			<rect id="SVGID_35_" x="32.019" y="32.227" width="192" height="192"/>
		</defs>
		<clipPath id="SVGID_36_">
			<use xlink:href="#SVGID_35_"  style="overflow:visible;"/>
		</clipPath>
		
			<rect x="66.441" y="71.585" transform="matrix(0.7986 -0.6018 0.6018 0.7986 -52.8871 103.313)" style="clip-path:url(#SVGID_36_);fill:#FFFFFF;" width="123" height="118.205"/>
	</g>
</g>
<g>
	<defs>
		<path id="SVGID_37_" d="M128.511,91.529c11.317,0,20.491,8.925,20.491,19.935c0.647,17.185-16.525,42.065-20.559,42.065
			c-3.906,0-18.77-22.454-20.247-39.433l-0.053-0.43c-0.082-0.723-0.123-1.457-0.123-2.201
			C108.019,100.454,117.194,91.529,128.511,91.529z"/>
	</defs>
	<clipPath id="SVGID_38_">
		<use xlink:href="#SVGID_37_"  style="overflow:visible;"/>
	</clipPath>
	<g style="clip-path:url(#SVGID_38_);">
		<defs>
			<rect id="SVGID_39_" x="32.019" y="32.227" width="192" height="192"/>
		</defs>
		<clipPath id="SVGID_40_">
			<use xlink:href="#SVGID_39_"  style="overflow:visible;"/>
		</clipPath>
		<rect x="103.019" y="86.529" style="clip-path:url(#SVGID_40_);fill:#BE3F3F;" width="51" height="72"/>
	</g>
</g>
<g>
	<defs>
		<circle id="SVGID_41_" cx="128.519" cy="111.029" r="14.5"/>
	</defs>
	<clipPath id="SVGID_42_">
		<use xlink:href="#SVGID_41_"  style="overflow:visible;"/>
	</clipPath>
	<g style="clip-path:url(#SVGID_42_);">
		<defs>
			<rect id="SVGID_43_" x="32.019" y="32.227" width="192" height="192"/>
		</defs>
		<clipPath id="SVGID_44_">
			<use xlink:href="#SVGID_43_"  style="overflow:visible;"/>
		</clipPath>
		<rect x="109.019" y="91.529" style="clip-path:url(#SVGID_44_);fill:#FFFFFF;" width="39" height="39"/>
	</g>
</g>
</svg>
